<?xml version="1.0" encoding="UTF-8" standalone="no"?>
<!DOCTYPE svg PUBLIC "-//W3C//DTD SVG 1.1//EN" "http://www.w3.org/Graphics/SVG/1.1/DTD/svg11.dtd">
<svg width="100%" height="100%" viewBox="0 0 384 512" version="1.1" xmlns="http://www.w3.org/2000/svg" xmlns:xlink="http://www.w3.org/1999/xlink" xml:space="preserve" xmlns:serif="http://www.serif.com/" style="fill-rule:evenodd;clip-rule:evenodd;stroke-linejoin:round;stroke-miterlimit:2;">
    <path d="M97.333,506.966C-32.541,377.092 -32.348,166.714 97.333,37.033C103.031,31.335 111.86,30.401 118.596,34.611L183.413,75.124C190.438,79.514 193.339,88.39 190.262,96.082L157.854,177.103C155.018,184.192 147.783,188.582 140.185,187.822L84.375,182.242C63.324,240.503 63.763,304.713 84.375,361.757L140.186,356.176C147.784,355.416 155.019,359.806 157.855,366.895L190.263,447.917C193.339,455.609 190.439,464.484 183.414,468.875L118.597,509.388C111.833,513.615 102.973,512.605 97.333,506.966ZM247.126,95.473C258.958,115.52 258.958,140.481 247.126,160.528C243.176,167.221 234.018,168.487 228.408,163.109L222.433,157.383C218.522,153.635 217.64,147.761 220.172,142.973C225.115,133.613 225.115,122.388 220.172,113.028C217.639,108.24 218.522,102.366 222.433,98.618L228.408,92.892C234.018,87.514 243.176,88.78 247.126,95.473ZM338.913,4.286C399.053,75.89 399.005,180.168 338.913,251.714C334.439,257.041 326.383,257.46 321.361,252.647L315.563,247.09C311.003,242.719 310.586,235.561 314.633,230.711C364.32,171.173 364.279,84.778 314.633,25.289C310.586,20.439 311.002,13.281 315.563,8.91L321.361,3.353C326.383,-1.46 334.439,-1.041 338.913,4.286ZM292.941,49.227C328.991,95.549 329.049,160.376 292.941,206.773C288.551,212.414 280.244,213.024 275.085,208.077L269.267,202.498C264.867,198.279 264.269,191.403 267.982,186.567C294.518,152.003 294.516,103.995 267.982,69.433C264.269,64.597 264.867,57.722 269.267,53.502L275.085,47.923C280.244,42.976 288.551,43.586 292.941,49.227Z" style="fill:white;fill-rule:nonzero;"/>
</svg>
